<?xml version="1.0" encoding="UTF-8"?><svg xmlns="http://www.w3.org/2000/svg" viewBox="0 0 301.14 121.81"><g id="Ebene_1"><g><path d="M37.3,80.53l6.24,23.56h-4.95l-1.09-4.98h-6.27l-1.09,4.98h-4.95l6.24-23.56h5.87Zm-.63,14.68l-2.28-10.59h-.07l-2.28,10.59h4.62Z" fill="#fff"/><path d="M49.11,80.53v23.56h-4.55v-23.56h4.55Z" fill="#fff"/><path d="M56.37,80.53v23.56h-4.55v-23.56h4.55Z" fill="#fff"/><path d="M63.47,80.53v7.46h.07c.48-.7,1.03-1.23,1.63-1.58,.6-.35,1.34-.53,2.19-.53,1.87,0,3.25,.73,4.12,2.19s1.32,3.84,1.32,7.14-.44,5.67-1.32,7.09c-.88,1.43-2.26,2.15-4.12,2.15-.92,0-1.7-.17-2.33-.5s-1.19-.91-1.7-1.75h-.07v1.88h-4.36v-23.56h4.55Zm.45,19.06c.3,.98,.95,1.47,1.96,1.47s1.63-.49,1.93-1.47c.3-.98,.45-2.44,.45-4.37s-.15-3.39-.45-4.37c-.3-.98-.94-1.47-1.93-1.47s-1.67,.49-1.96,1.47c-.3,.98-.45,2.44-.45,4.37s.15,3.39,.45,4.37Z" fill="#fff"/><path d="M74.72,91.36c0-1.03,.17-1.9,.5-2.59,.33-.69,.78-1.25,1.34-1.68,.56-.43,1.22-.74,1.98-.92,.76-.19,1.57-.28,2.43-.28,1.36,0,2.46,.13,3.3,.4,.84,.26,1.48,.64,1.95,1.12,.46,.48,.78,1.06,.94,1.73,.17,.67,.25,1.4,.25,2.19v9.34c0,.84,.04,1.48,.12,1.95,.08,.46,.23,.96,.45,1.49h-4.36c-.15-.29-.27-.59-.35-.91-.08-.32-.15-.63-.21-.94h-.07c-.53,.92-1.14,1.52-1.83,1.8-.69,.28-1.59,.41-2.69,.41-.79,0-1.46-.14-2.01-.41-.55-.27-.99-.65-1.32-1.14-.33-.48-.57-1.03-.73-1.63s-.23-1.21-.23-1.8c0-.84,.09-1.56,.26-2.16,.18-.61,.45-1.12,.81-1.55,.36-.43,.82-.79,1.39-1.07,.56-.29,1.24-.54,2.03-.76l2.57-.69c.68-.18,1.16-.42,1.42-.73,.26-.31,.4-.76,.4-1.35,0-.68-.16-1.22-.48-1.6s-.86-.58-1.63-.58c-.7,0-1.23,.21-1.58,.63-.35,.42-.53,.98-.53,1.68v.5h-4.09v-.43Zm7.33,4.44c-.35,.14-.67,.25-.96,.31-.92,.2-1.58,.53-1.98,.99s-.59,1.09-.59,1.88c0,.68,.13,1.27,.4,1.75,.26,.48,.7,.73,1.32,.73,.31,0,.63-.05,.96-.15,.33-.1,.63-.26,.91-.48,.27-.22,.5-.51,.68-.86s.26-.77,.26-1.25v-3.5c-.31,.24-.64,.43-.99,.58Z" fill="#fff"/><path d="M99.01,102.02c-.48,.88-1.11,1.51-1.88,1.88-.77,.37-1.65,.56-2.64,.56-1.45,0-2.57-.38-3.35-1.14-.78-.76-1.17-2.03-1.17-3.81v-13.17h4.55v12.24c0,.92,.15,1.57,.46,1.93,.31,.36,.8,.54,1.48,.54,1.61,0,2.41-.98,2.41-2.94v-11.78h4.55v17.75h-4.36v-2.08h-.07Z" fill="#fff"/><path d="M110.16,86.34v1.88h.07c.51-.84,1.07-1.44,1.7-1.8,.63-.36,1.4-.54,2.33-.54,1.87,0,3.25,.73,4.12,2.19s1.32,3.84,1.32,7.14-.44,5.67-1.32,7.09c-.88,1.43-2.26,2.15-4.12,2.15-.86,0-1.59-.16-2.19-.48-.61-.32-1.15-.83-1.63-1.54h-.07v7.36h-4.55v-23.46h4.36Zm.64,13.25c.3,.98,.95,1.47,1.96,1.47s1.63-.49,1.93-1.47c.3-.98,.45-2.44,.45-4.37s-.15-3.39-.45-4.37c-.3-.98-.94-1.47-1.93-1.47s-1.67,.49-1.96,1.47c-.3,.98-.45,2.44-.45,4.37s.15,3.39,.45,4.37Z" fill="#fff"/><path d="M126,86.34v2.38h.07c.46-.86,1.02-1.54,1.68-2.06,.66-.52,1.46-.78,2.41-.78,.13,0,.27,0,.41,.02s.28,.03,.41,.05v4.36c-.24-.02-.48-.04-.71-.05-.23-.01-.47-.02-.71-.02-.4,0-.79,.06-1.19,.17-.4,.11-.76,.29-1.09,.54s-.59,.58-.79,.99c-.2,.41-.3,.91-.3,1.5v10.66h-4.55v-17.75h4.36Z" fill="#fff"/><path d="M131.74,91.19c.24-1.17,.64-2.14,1.19-2.92,.55-.78,1.27-1.38,2.16-1.78,.89-.41,1.98-.61,3.28-.61,1.36-.02,2.5,.16,3.4,.54,.9,.39,1.62,.97,2.14,1.77,.53,.79,.9,1.77,1.12,2.94,.22,1.17,.33,2.53,.33,4.09s-.12,2.86-.36,4.03-.64,2.14-1.19,2.92c-.55,.78-1.27,1.36-2.16,1.73-.89,.37-1.98,.56-3.28,.56-1.36,.02-2.5-.15-3.4-.51-.9-.36-1.62-.93-2.15-1.72s-.9-1.76-1.12-2.94c-.22-1.18-.33-2.54-.33-4.08s.12-2.86,.36-4.03Zm4.26,6.53c.04,.77,.15,1.43,.31,1.98s.41,.98,.74,1.29c.33,.31,.77,.46,1.32,.46,.92,0,1.56-.48,1.91-1.45s.53-2.56,.53-4.79-.18-3.82-.53-4.79c-.35-.97-.99-1.45-1.91-1.45-.55,0-.99,.15-1.32,.46-.33,.31-.58,.74-.74,1.29-.17,.55-.27,1.21-.31,1.98-.04,.77-.07,1.61-.07,2.51s.02,1.74,.07,2.51Z" fill="#fff"/><path d="M151.87,86.34v18.88c0,.75-.08,1.41-.25,1.98s-.45,1.05-.84,1.44c-.4,.38-.93,.68-1.6,.88-.67,.2-1.51,.3-2.52,.3-.26,0-.54,0-.83-.02-.29-.01-.59-.03-.92-.05v-3.3c.13,.04,.25,.07,.36,.07h.36c.75,0,1.21-.23,1.4-.68,.19-.45,.28-1.14,.28-2.06v-17.42h4.55Zm0-6.07v3.89h-4.55v-3.89h4.55Z" fill="#fff"/><path d="M158.31,97.33c0,.53,.04,1.04,.12,1.53s.2,.94,.38,1.32c.18,.38,.41,.69,.69,.92,.29,.23,.64,.35,1.06,.35,.77,0,1.33-.28,1.68-.83s.59-1.39,.73-2.51h4.09c-.09,2.07-.64,3.64-1.65,4.72s-2.61,1.62-4.79,1.62c-1.65,0-2.94-.28-3.86-.83-.92-.55-1.61-1.28-2.05-2.18-.44-.9-.71-1.91-.81-3.04-.1-1.12-.15-2.24-.15-3.37,0-1.19,.08-2.33,.25-3.43,.17-1.1,.5-2.08,.99-2.94,.5-.86,1.2-1.54,2.13-2.05,.92-.51,2.16-.76,3.7-.76,1.32,0,2.4,.21,3.25,.64,.85,.43,1.51,1.03,2,1.81,.48,.78,.81,1.73,.99,2.84,.18,1.11,.26,2.35,.26,3.71v1.02h-9.01v1.42Zm4.52-5.92c-.07-.52-.18-.96-.35-1.32-.17-.36-.4-.64-.69-.83-.3-.19-.68-.28-1.14-.28s-.84,.1-1.14,.31c-.3,.21-.53,.48-.71,.83-.18,.34-.3,.72-.38,1.14s-.12,.84-.12,1.25v.69h4.65c-.02-.68-.07-1.28-.13-1.8Z" fill="#fff"/><path d="M173.75,92.97h.07l4.59-6.63h5.02l-5.12,7,5.87,10.76h-5.02l-3.8-7.29-1.62,2.11v5.18h-4.55v-23.56h4.55v12.44Z" fill="#fff"/><path d="M190.42,81.26v5.08h2.64v3.1h-2.64v9.6c0,.7,.1,1.2,.31,1.5,.21,.3,.64,.45,1.3,.45,.18,0,.35,0,.53-.02,.18-.01,.34-.03,.5-.05v3.17c-.51,0-1,.02-1.47,.05-.47,.03-.97,.05-1.5,.05-.88,0-1.6-.06-2.16-.18-.56-.12-.99-.36-1.29-.73s-.5-.84-.61-1.44-.17-1.34-.17-2.24v-10.16h-2.31v-3.1h2.31v-5.08h4.55Z" fill="#fff"/><path d="M211.69,86.18c-.1-.46-.26-.89-.48-1.27-.22-.38-.5-.7-.84-.96-.34-.25-.75-.38-1.24-.38-1.14,0-1.97,.64-2.48,1.91-.51,1.28-.76,3.39-.76,6.34,0,1.41,.04,2.68,.13,3.83,.09,1.14,.25,2.12,.48,2.92,.23,.8,.56,1.42,.99,1.85s.98,.64,1.67,.64c.29,0,.6-.08,.94-.23,.34-.15,.66-.38,.96-.69,.3-.31,.54-.7,.74-1.17,.2-.47,.3-1.03,.3-1.67v-2.41h-3.13v-3.5h7.69v12.71h-3.5v-2.18h-.07c-.57,.92-1.26,1.58-2.06,1.96-.8,.38-1.77,.58-2.89,.58-1.45,0-2.63-.25-3.55-.76-.91-.5-1.63-1.29-2.14-2.34-.52-1.06-.86-2.36-1.04-3.91s-.26-3.35-.26-5.4,.13-3.72,.38-5.21c.25-1.5,.69-2.74,1.3-3.75,.62-1,1.43-1.75,2.44-2.26s2.28-.76,3.79-.76c2.6,0,4.47,.64,5.61,1.93,1.14,1.29,1.72,3.13,1.72,5.53h-4.55c0-.44-.05-.89-.15-1.35Z" fill="#fff"/><path d="M223.28,86.34v1.81h.07c.57-.81,1.21-1.4,1.93-1.75,.71-.35,1.57-.53,2.56-.53,1.06,0,1.94,.24,2.66,.73,.71,.48,1.19,1.19,1.43,2.11h.07c.35-.95,.92-1.66,1.7-2.13,.78-.47,1.71-.71,2.79-.71,1.52,0,2.63,.46,3.35,1.37,.71,.91,1.07,2.23,1.07,3.94v12.9h-4.55v-12.41c0-.75-.14-1.32-.41-1.72-.28-.4-.73-.59-1.37-.59-.73,0-1.3,.24-1.73,.73-.43,.48-.64,1.25-.64,2.31v11.68h-4.55v-12.41c0-.75-.14-1.32-.41-1.72-.28-.4-.73-.59-1.37-.59-.73,0-1.3,.24-1.73,.73-.43,.48-.64,1.25-.64,2.31v11.68h-4.55v-17.75h4.36Z" fill="#fff"/><path d="M247.84,80.53v7.46h.07c.48-.7,1.03-1.23,1.63-1.58,.6-.35,1.34-.53,2.19-.53,1.87,0,3.25,.73,4.12,2.19s1.32,3.84,1.32,7.14-.44,5.67-1.32,7.09c-.88,1.43-2.25,2.15-4.12,2.15-.92,0-1.7-.17-2.33-.5s-1.19-.91-1.7-1.75h-.07v1.88h-4.36v-23.56h4.55Zm.45,19.06c.3,.98,.95,1.47,1.96,1.47s1.63-.49,1.93-1.47c.3-.98,.45-2.44,.45-4.37s-.15-3.39-.45-4.37c-.3-.98-.94-1.47-1.93-1.47s-1.67,.49-1.96,1.47c-.3,.98-.45,2.44-.45,4.37s.15,3.39,.45,4.37Z" fill="#fff"/><path d="M264.01,80.53v9.01h5.54v-9.01h4.75v23.56h-4.75v-10.46h-5.54v10.46h-4.75v-23.56h4.75Z" fill="#fff"/></g></g><g id="Isolationsmodus"><g><path d="M179.9,49.84c-.43,0-.87-.15-1.22-.45l-28.12-24.01-28.12,24.01c-.79,.68-1.98,.58-2.65-.21-.67-.79-.58-1.98,.21-2.65l29.34-25.05c.7-.6,1.74-.6,2.44,0l29.34,25.05c.79,.67,.88,1.86,.21,2.65-.37,.44-.9,.66-1.43,.66Z" fill="#fff"/><path d="M169.89,69.69h-39.06c-1.04,0-1.88-.84-1.88-1.88v-28.04c0-1.04,.84-1.88,1.88-1.88s1.88,.84,1.88,1.88v26.16h35.3v-26.16c0-1.04,.84-1.88,1.88-1.88s1.88,.84,1.88,1.88v28.04c0,1.04-.84,1.88-1.88,1.88Z" fill="#fff"/><path d="M158.33,43.37c-2.04-1.9-5.44-1.99-7.47,0-.27,.27-.44,.22-.67,0-1.47-1.39-3.2-1.8-5.14-1.26-2.41,.67-4.12,3.01-4.17,5.61,.04,.36,.05,.72,.13,1.08,.41,1.98,1.58,3.52,2.93,4.96,1.68,1.8,3.65,3.25,5.62,4.69,.88,.64,1.09,.68,1.94,0,1.65-1.3,3.32-2.58,4.87-3.99,1.01-.93,1.93-2,2.71-3.13,1.81-2.62,1.52-5.87-.74-7.97Zm-1.88,4.57c-.25,1.35-.98,2.45-1.93,3.36-1.2,1.15-2.5,2.18-3.77,3.25-.07,.06-.24,.07-.3,.03-1.94-1.37-3.79-2.85-5.08-4.89-.51-.81-.87-1.68-.64-2.67,.19-.83,.85-1.36,1.67-1.37,1.12,0,1.95,.97,2.16,2.37,.1,.64,.26,1.34,.61,1.87,.43,.67,1.36,.81,2.09,.51,.83-.33,1.15-.99,1.29-1.84,.13-.74,.29-1.51,.63-2.16,.43-.83,1.38-1.04,2.22-.68,.8,.34,1.22,1.25,1.04,2.21Z" fill="#fff"/></g></g></svg>